HIERARCHY
ROOT Hips
{
	OFFSET 0.000000 0.000000 0.000000
	CHANNELS 6 Xposition Yposition Zposition Zrotation Yrotation Xrotation 
	JOINT LHipJoint
	{
		OFFSET 0.000000 0.000000 0.000000
		CHANNELS 3 Zrotation Yrotation Xrotation
		JOINT LeftUpLeg
		{
			OFFSET 1.363060 -1.794630 0.839290
			CHANNELS 3 Zrotation Yrotation Xrotation
			JOINT LeftLeg
			{
				OFFSET 2.448110 -6.726130 0.000000
				CHANNELS 3 Zrotation Yrotation Xrotation
				JOINT LeftFoot
				{
					OFFSET 2.562200 -7.039590 0.000000
					CHANNELS 3 Zrotation Yrotation Xrotation
					JOINT LeftToeBase
					{
						OFFSET 0.157640 -0.433110 2.322550
						CHANNELS 3 Zrotation Yrotation Xrotation
						End Site
						{
							OFFSET 0.000000 0.000000 0.000000
						}
					}
				}
			}
		}
	}
	JOINT RHipJoint
	{
		OFFSET 0.000000 0.000000 0.000000
		CHANNELS 3 Zrotation Yrotation Xrotation
		JOINT RightUpLeg
		{
			OFFSET -1.305520 -1.794630 0.839290
			CHANNELS 3 Zrotation Yrotation Xrotation
			JOINT RightLeg
			{
				OFFSET -2.542530 -6.985550 0.000000
				CHANNELS 3 Zrotation Yrotation Xrotation
				JOINT RightFoot
				{
					OFFSET -2.568260 -7.056230 0.000000
					CHANNELS 3 Zrotation Yrotation Xrotation
					JOINT RightToeBase
					{
						OFFSET -0.164730 -0.452590 2.363150
						CHANNELS 3 Zrotation Yrotation Xrotation
						End Site
						{
							OFFSET 0.000000 0.000000 0.000000
						}
					}
				}
			}
		}
	}
	JOINT LowerBack
	{
		OFFSET 0.000000 0.000000 0.000000
		CHANNELS 3 Zrotation Yrotation Xrotation
		JOINT Spine
		{
			OFFSET 0.028270 2.035590 -0.193380
			CHANNELS 3 Zrotation Yrotation Xrotation
			JOINT Spine1
			{
				OFFSET 0.056720 2.048850 -0.042750
				CHANNELS 3 Zrotation Yrotation Xrotation
				JOINT Neck
				{
					OFFSET 0.000000 0.000000 0.000000
					CHANNELS 3 Zrotation Yrotation Xrotation
					JOINT Neck1
					{
						OFFSET -0.054170 1.746240 0.172020
						CHANNELS 3 Zrotation Yrotation Xrotation
						JOINT Head
						{
							OFFSET 0.104070 1.761360 -0.123970
							CHANNELS 3 Zrotation Yrotation Xrotation
							End Site
							{
								OFFSET 0.000000 0.000000 0.000000
							}
						}
					}
				}
				JOINT LeftShoulder
				{
					OFFSET 0.000000 0.000000 0.000000
					CHANNELS 3 Zrotation Yrotation Xrotation
					JOINT LeftArm
					{
						OFFSET 3.362410 1.200890 -0.311210
						CHANNELS 3 Zrotation Yrotation Xrotation
						JOINT LeftForeArm
						{
							OFFSET 4.983000 -0.000000 -0.000000
							CHANNELS 3 Zrotation Yrotation Xrotation
							JOINT LeftHand
							{
								OFFSET 3.483560 -0.000000 -0.000000
								CHANNELS 3 Zrotation Yrotation Xrotation
								JOINT LeftFingerBase
								{
									OFFSET 0.000000 0.000000 0.000000
									CHANNELS 3 Zrotation Yrotation Xrotation
									JOINT LeftHandIndex1
									{
										OFFSET 0.715260 -0.000000 -0.000000
										CHANNELS 3 Zrotation Yrotation Xrotation
										End Site
										{
											OFFSET 0.000000 0.000000 0.000000
										}
									}
								}
								JOINT LThumb
								{
									OFFSET 0.000000 0.000000 0.000000
									CHANNELS 3 Zrotation Yrotation Xrotation
									End Site
									{
										OFFSET 0.000000 0.000000 0.000000
									}
								}
							}
						}
					}
				}
				JOINT RightShoulder
				{
					OFFSET 0.000000 0.000000 0.000000
					CHANNELS 3 Zrotation Yrotation Xrotation
					JOINT RightArm
					{
						OFFSET -3.136600 1.374050 -0.404650
						CHANNELS 3 Zrotation Yrotation Xrotation
						JOINT RightForeArm
						{
							OFFSET -5.241900 -0.000000 -0.000000
							CHANNELS 3 Zrotation Yrotation Xrotation
							JOINT RightHand
							{
								OFFSET -3.444170 -0.000000 -0.000000
								CHANNELS 3 Zrotation Yrotation Xrotation
								JOINT RightFingerBase
								{
									OFFSET 0.000000 0.000000 0.000000
									CHANNELS 3 Zrotation Yrotation Xrotation
									JOINT RightHandIndex1
									{
										OFFSET -0.622530 -0.000000 -0.000000
										CHANNELS 3 Zrotation Yrotation Xrotation
										End Site
										{
											OFFSET 0.000000 0.000000 0.000000
										}
									}
								}
								JOINT RThumb
								{
									OFFSET 0.000000 0.000000 0.000000
									CHANNELS 3 Zrotation Yrotation Xrotation
									End Site
									{
										OFFSET 0.000000 0.000000 0.000000
									}
								}
							}
						}
					}
				}
			}
		}
	}
}
MOTION
Frames: 9
Frame Time: 0.008333
9.112870 16.746023 -28.406517 -2.468284 -10.028524 10.604967 2.146380 -1.893075 -4.914911 -12.570415 3.600406 -44.492593 0.375988 14.141821 31.553493 -2.057291 12.918908 20.594872 0.028000 -1.079700 -2.968100 -0.791613 -3.475511 4.582615 15.061329 2.659722 13.550143 1.646352 -4.244545 16.297076 0.455635 -5.778349 20.974107 -0.995300 6.349200 -17.801000 -0.649544 5.381249 -3.138938 0.341309 6.445652 -5.177773 3.781084 4.002213 5.104924 -10.505831 -6.162996 -15.792426 7.627290 -5.785133 4.857250 7.081100 -2.629200 9.257700 -1.133221 -5.308128 -0.914614 -85.267694 23.366922 14.083420 5.532256 -14.183519 -1.402049 0.303471 1.299037 11.100552 5.933707 -22.316137 -2.371300 -7.125000 0.000000 0.000000 -14.382200 6.817000 13.000200 -1.038860 8.375712 1.254806 70.951837 0.114604 43.178227 -34.299610 38.680029 -16.074902 1.862280 3.003905 -33.466879 -33.265786 -23.592584 16.986900 7.125000 0.000000 0.000000 -8.278700 -59.237800 2.891800
9.139320 16.766946 -28.257290 -2.072879 -10.061392 10.428822 2.076223 -1.864500 -4.784463 -13.129945 3.728264 -44.304496 0.446448 14.239396 32.108212 -1.990387 12.331768 19.783330 0.040592 -1.289434 -3.545667 -0.765116 -3.436316 4.514331 14.471718 2.208766 12.590967 1.253179 -4.987807 18.345071 0.443613 -6.117443 21.958743 -1.011990 6.400474 -17.950905 -1.020780 5.394086 -2.933556 0.307530 6.492427 -5.191930 3.795821 4.013509 4.869617 -10.569124 -6.219173 -15.579098 7.615787 -5.851855 4.811394 7.084775 -2.671556 9.213958 -1.155812 -5.351983 -0.908256 -85.133056 23.244406 14.687361 5.624801 -14.291024 -1.424034 0.293472 1.289831 10.657884 6.057231 -22.207877 -2.408836 -7.125000 0.000000 0.000000 -14.308453 6.922259 12.898978 -1.066154 8.402282 1.245774 71.280522 -0.424517 42.901555 -34.036712 38.536565 -15.924285 1.874169 3.048130 -33.503284 -33.657149 -24.046173 17.519037 7.125000 0.000000 0.000000 -8.761431 -59.865375 3.198297
9.166509 16.787937 -28.107705 -1.693700 -10.089267 10.256005 2.001910 -1.837219 -4.654021 -13.660721 3.835747 -44.081881 0.510392 14.324172 32.622331 -1.929235 11.776643 18.964697 0.051032 -1.457097 -4.007478 -0.739906 -3.394443 4.436818 13.908238 1.766643 11.625060 0.840433 -5.728643 20.394753 0.441953 -6.525227 22.946237 -1.006578 6.383106 -17.900401 -1.367034 5.388696 -2.751099 0.277737 6.512327 -5.202392 3.805261 4.010942 4.670512 -10.608407 -6.254662 -15.384329 7.594794 -5.898069 4.777317 7.076436 -2.703662 9.168493 -1.175179 -5.394731 -0.899914 -85.045994 23.077497 15.148843 5.710853 -14.384136 -1.443951 0.283732 1.280060 10.282051 6.186384 -22.082107 -2.447008 -7.125000 0.000000 0.000000 -14.230462 7.044390 12.789105 -1.087139 8.423544 1.236271 71.611508 -0.895840 42.655886 -33.714461 38.349155 -15.727684 1.893669 3.085330 -33.518368 -34.095279 -24.415454 18.027146 7.125000 0.000000 0.000000 -9.322809 -60.401100 3.522303
9.195131 16.809058 -27.957426 -1.345979 -10.107460 10.089638 1.919540 -1.812443 -4.523588 -14.135750 3.903728 -43.792345 0.561702 14.384131 33.057733 -1.879234 11.283590 18.132315 0.057298 -1.543196 -4.244867 -0.717192 -3.347374 4.341412 13.395422 1.341646 10.646102 0.389740 -6.464773 22.447709 0.460380 -7.066185 23.939271 -0.958317 6.232659 -17.461352 -1.664857 5.347969 -2.613089 0.255669 6.480122 -5.205691 3.804431 3.981498 4.541596 -10.601141 -6.250042 -15.225543 7.555399 -5.904521 4.766080 7.044805 -2.715893 9.119690 -1.188294 -5.435334 -0.887723 -85.051169 22.824518 15.334128 5.784318 -14.449343 -1.459860 0.274496 1.269197 10.035797 6.326449 -21.922392 -2.486413 -7.125000 0.000000 0.000000 -14.144242 7.199236 12.662457 -1.095889 8.434519 1.225851 71.946954 -1.235719 42.470326 -33.277139 38.076544 -15.441928 1.927927 3.108910 -33.492114 -34.624081 -24.621284 18.488669 7.125000 0.000000 0.000000 -10.036663 -60.758751 3.880254
9.221782 16.828074 -27.810684 -0.961573 -10.084855 9.973933 1.836129 -1.792826 -4.394504 -14.639494 3.913407 -43.520798 0.594081 14.426084 33.415933 -1.822357 10.840763 17.419921 0.062088 -1.606784 -4.420258 -0.695452 -3.298256 4.239181 12.901552 1.043195 9.685197 -0.101410 -7.193031 24.486732 0.555885 -7.879523 24.737894 -0.830179 5.791862 -16.187580 -2.020686 5.281290 -2.521785 0.228938 6.413745 -5.220615 3.790516 3.938507 4.361600 -10.596065 -6.228736 -14.989380 7.564564 -5.891885 4.752020 7.051676 -2.716807 9.050385 -1.213708 -5.473825 -0.875433 -85.001763 22.621054 15.465755 5.851302 -14.505856 -1.475211 0.263186 1.267728 9.807412 6.527230 -21.858863 -2.561900 -7.125000 0.000000 0.000000 -14.017880 7.246281 12.528592 -1.111465 8.453787 1.214699 72.329067 -1.634246 42.306520 -32.772897 37.745885 -15.094842 1.961063 3.111861 -33.295364 -34.863544 -24.696638 18.685879 7.125000 0.000000 0.000000 -10.370737 -60.893461 4.041509
9.247450 16.846148 -27.665733 -0.558645 -10.043134 9.882895 1.752185 -1.775752 -4.266155 -15.158473 3.896433 -43.258298 0.616957 14.458830 33.735390 -1.762330 10.422917 16.765736 0.066246 -1.660451 -4.568329 -0.674286 -3.248024 4.133404 12.416373 0.806450 8.732267 -0.612642 -7.917160 26.519322 0.687822 -8.822110 25.443067 -0.666402 5.220329 -14.538251 -2.405112 5.203456 -2.453105 0.199731 6.332735 -5.240884 3.770987 3.889746 4.159319 -10.593942 -6.200827 -14.720475 7.597227 -5.871198 4.737318 7.077714 -2.712806 8.973568 -1.245271 -5.511231 -0.863249 -84.924360 22.439092 15.579899 5.915903 -14.559377 -1.490504 0.250921 1.270734 9.583622 6.755942 -21.842238 -2.654268 -7.125000 0.000000 0.000000 -13.873079 7.240992 12.392208 -1.130394 8.476961 1.203037 72.732618 -2.058683 42.149482 -32.235647 37.386559 -14.718146 1.993609 3.105230 -33.017979 -34.964702 -24.711602 18.758133 7.125000 0.000000 0.000000 -10.523210 -60.924046 4.109251
9.270347 16.866347 -27.526902 -0.094480 -10.003010 9.833573 1.666184 -1.764382 -4.142616 -15.760122 3.913015 -43.024164 0.610827 14.456162 33.937091 -1.705913 10.071055 16.200283 0.073235 -1.744501 -4.800115 -0.658573 -3.190619 4.011474 11.921752 0.678114 7.755877 -1.175178 -8.620900 28.556918 0.831696 -9.830332 26.045055 -0.589703 4.909735 -13.652681 -2.853917 5.173851 -2.417363 0.157037 6.317831 -5.255906 3.776291 3.868643 4.036422 -10.682364 -6.230712 -14.619685 7.663048 -5.893209 4.754670 7.155197 -2.727508 8.996042 -1.294415 -5.544224 -0.858268 -84.735208 22.175353 16.056115 6.011515 -14.664024 -1.515428 0.239431 1.276809 9.181580 6.957951 -21.908141 -2.743921 -7.125000 0.000000 0.000000 -13.747275 7.154231 12.296590 -1.156285 8.500736 1.183627 73.114286 -2.407047 41.830581 -31.623389 36.960440 -14.302731 2.023217 3.103373 -32.712136 -34.948671 -24.766647 18.788499 7.125000 0.000000 0.000000 -10.518872 -60.979055 4.121301
9.293126 16.888376 -27.387904 0.337362 -9.959856 9.789655 1.576037 -1.755226 -4.020551 -16.313359 3.905692 -42.752595 0.596841 14.438854 34.088543 -1.663203 9.768886 15.641082 0.077482 -1.795589 -4.941020 -0.643898 -3.128186 3.881140 11.471964 0.544517 6.766120 -1.755605 -9.316689 30.594579 0.978095 -10.872287 26.631054 -0.540809 4.711757 -13.088184 -3.268917 5.136290 -2.390775 0.119630 6.290220 -5.267649 3.784093 3.840618 3.944632 -10.727397 -6.235649 -14.554600 7.692784 -5.891703 4.781779 7.193647 -2.731548 9.018015 -1.332300 -5.580887 -0.854572 -84.566093 21.901037 16.620893 6.131970 -14.806734 -1.547019 0.225311 1.278379 8.668283 7.146869 -21.948012 -2.824741 -7.125000 0.000000 0.000000 -13.629804 7.098691 12.200297 -1.169374 8.520150 1.161561 73.482157 -2.655680 41.529746 -30.965885 36.483906 -13.849113 2.053482 3.089571 -32.398855 -34.816398 -24.688179 18.657513 7.125000 0.000000 0.000000 -10.367737 -60.845864 4.030657
9.315694 16.913642 -27.248613 0.712019 -9.911340 9.755298 1.478555 -1.749985 -3.901094 -16.780944 3.856076 -42.414794 0.568953 14.395644 34.151095 -1.644743 9.554636 15.092943 0.076880 -1.788359 -4.921137 -0.631060 -3.056857 3.735940 11.101497 0.401614 5.752716 -2.367684 -9.998412 32.632356 1.128961 -11.973922 27.188765 -0.541110 4.713022 -13.091738 -3.624110 5.084651 -2.380383 0.091575 6.240127 -5.273591 3.796315 3.800348 3.907874 -10.695667 -6.196443 -14.552682 7.658679 -5.848589 4.826149 7.163040 -2.716726 9.039103 -1.350264 -5.624046 -0.853152 -84.432429 21.608012 17.342358 6.296376 -15.016790 -1.590404 0.206534 1.271979 7.958152 7.312623 -21.941825 -2.889933 -7.125000 0.000000 0.000000 -13.527076 7.098390 12.102810 -1.159812 8.531851 1.134796 73.825620 -2.727866 41.260874 -30.228332 35.918173 -13.327904 2.084908 3.054638 -32.072416 -34.478465 -24.373499 18.241058 7.125000 0.000000 0.000000 -9.956885 -60.379701 3.758322
